#!OML:ASF F:\VICON\USERDATA\INSTALL\rory3\rory3.ASF
:FULLY-SPECIFIED
:DEGREES
196
root 1.05686 16.3829 -16.732 25.2486 -1.83961 -2.15039
lowerback 21.7824 0.906647 0.813839
upperback 3.1548 1.6586 3.09695
thorax -8.79773 0.806717 2.44945
lowerneck -20.6616 -4.5724 -9.31369
upperneck 16.3748 -4.78657 6.39688
head 8.90935 -2.14727 3.05676
rclavicle -4.37326e-015 -4.37326e-015
rhumerus -30.5245 -0.443968 -83.5124
rradius 81.4668
rwrist -7.70398
rhand -26.8388 26.4125
rfingers 7.12502
rthumb -0.264421 -3.56706
lclavicle -4.37326e-015 -4.37326e-015
lhumerus -29.9037 2.62166 85.0214
lradius 76.8841
lwrist 12.3554
lhand -17.8732 24.6003
lfingers 7.12502
lthumb 8.39269 54.4136
rfemur -56.4072 2.52 24.3481
rtibia 56.9644
rfoot -19.8971 -10.0797
rtoes 6.52066
lfemur -58.8878 0.42318 -19.5294
ltibia 58.0378
lfoot -21.206 3.35801
ltoes 0.25704
197
root 1.04771 16.317 -16.7517 25.7611 -1.81817 -2.32039
lowerback 22.5015 0.884965 0.903651
upperback 3.042 1.66889 3.05104
thorax -9.30455 0.807538 2.34298
lowerneck -21.0162 -4.46435 -9.08013
upperneck 16.3373 -4.65235 6.29137
head 8.9377 -2.0748 2.99804
rclavicle -8.74653e-015 -3.77691e-014
rhumerus -30.3119 -0.244787 -83.6853
rradius 82.0056
rwrist -7.37116
rhand -27.3518 26.5938
rfingers 7.12502
rthumb -0.759892 -3.38456
lclavicle -8.74653e-015 -3.77691e-014
lhumerus -29.689 2.7053 84.8013
lradius 77.3636
lwrist 12.7578
lhand -18.0155 22.9336
lfingers 7.12502
lthumb 8.25538 52.7523
rfemur -57.5775 2.78293 24.5264
rtibia 57.8384
rfoot -20.0504 -10.3743
rtoes 6.11183
lfemur -60.092 0.513884 -19.3061
ltibia 58.8687
lfoot -21.3085 3.40128
ltoes 0.388222
198
root 1.0426 16.2479 -16.7581 26.2375 -1.66121 -2.28298
lowerback 23.0888 0.811912 0.925443
upperback 2.86423 1.59744 3.01086
thorax -9.81335 0.773037 2.30785
lowerneck -21.0692 -4.42396 -9.11134
upperneck 16.2463 -4.61109 6.44109
head 8.91674 -2.03996 3.06006
rclavicle -9.54166e-015 -2.82274e-014
rhumerus -30.1372 -0.066739 -83.8034
rradius 82.1813
rwrist -7.32769
rhand -27.3015 26.9176
rfingers 7.12502
rthumb -0.711276 -3.061
lclavicle -9.54166e-015 -2.82274e-014
lhumerus -29.8917 2.79015 84.6726
lradius 77.9963
lwrist 12.9513
lhand -18.5594 22.6617
lfingers 7.12502
lthumb 7.73047 52.5003
rfemur -58.6722 2.81049 24.5369
rtibia 58.7299
rfoot -20.2675 -10.6336
rtoes 5.95088
lfemur -61.2669 0.37668 -19.2771
ltibia 59.7408
lfoot -21.4612 3.59007
ltoes 0.360488
199
root 1.04226 16.1952 -16.7452 26.6709 -1.46721 -2.37634
lowerback 23.2994 0.744278 1.12264
upperback 2.91483 1.56653 3.04895
thorax -9.86434 0.751097 2.24588
lowerneck -21.2792 -4.48849 -9.21408
upperneck 16.0023 -4.67412 6.60782
head 8.88153 -2.05319 3.1218
rclavicle 7.15625e-015 2.98177e-014
rhumerus -29.701 0.135349 -83.7693
rradius 82.4156
rwrist -7.62459
rhand -26.7089 27.0659
rfingers 7.12502
rthumb -0.138899 -2.91375
lclavicle 7.15625e-015 2.98177e-014
lhumerus -29.7419 2.87383 84.6659
lradius 78.2927
lwrist 13.0028
lhand -18.9758 22.5626
lfingers 7.12502
lthumb 7.32856 52.4157
rfemur -59.5503 2.73935 24.727
rtibia 59.5604
rfoot -20.6162 -10.8548
rtoes 5.82161
lfemur -62.2277 0.227041 -19.106
ltibia 60.6154
lfoot -21.7923 3.85299
ltoes 0.036171
200
root 1.04171 16.1458 -16.7341 27.1413 -1.42948 -2.44332
lowerback 23.4248 0.750011 1.20863
upperback 3.02719 1.59545 3.06215
thorax -9.80444 0.760598 2.2011
lowerneck -21.544 -4.5137 -9.14955
upperneck 15.6535 -4.66855 6.5073
head 8.80236 -2.0514 3.07168
rclavicle -8.34896e-015 -4.25399e-014
rhumerus -29.1768 0.286411 -83.6803
rradius 82.7333
rwrist -7.8649
rhand -26.6269 27.1381
rfingers 7.12502
rthumb -0.0597109 -2.84164
lclavicle -8.34896e-015 -4.25399e-014
lhumerus -29.13 2.94088 84.7239
lradius 78.1221
lwrist 13.2512
lhand -18.7121 22.5843
lfingers 7.12502
lthumb 7.583 52.4283
rfemur -60.4872 2.69635 24.8608
rtibia 60.3877
rfoot -20.9346 -10.9952
rtoes 5.49421
lfemur -63.098 0.144695 -18.9634
ltibia 61.4512
lfoot -22.2488 3.95224
ltoes -0.0529835
201
root 1.043 16.081 -16.7283 27.7821 -1.44993 -2.47452
lowerback 23.5068 0.769521 1.22539
upperback 2.95537 1.62956 3.05923
thorax -9.92942 0.775815 2.17801
lowerneck -21.6047 -4.42584 -8.9334
upperneck 15.3268 -4.53332 6.20131
head 8.67587 -2.00539 2.94651
rclavicle -1.07344e-014 -1.43125e-014
rhumerus -28.8427 0.420299 -83.6068
rradius 82.7779
rwrist -7.73939
rhand -26.7252 27.2434
rfingers 7.12502
rthumb -0.154685 -2.73624
lclavicle -1.07344e-014 -1.43125e-014
lhumerus -28.8635 2.97875 84.8185
lradius 78.0374
lwrist 13.7544
lhand -18.4187 23.8309
lfingers 7.12502
lthumb 7.86622 53.6646
rfemur -61.6878 2.65468 24.942
rtibia 61.2227
rfoot -21.105 -11.0669
rtoes 5.28248
lfemur -64.2332 0.109013 -18.9173
ltibia 62.2972
lfoot -22.6087 3.98777
ltoes 0.166255
202
root 1.04366 16.0169 -16.7193 28.3704 -1.5041 -2.46152
lowerback 23.6319 0.79074 1.18697
upperback 2.92072 1.64692 3.0133
thorax -10.0354 0.784133 2.14358
lowerneck -21.8704 -4.39008 -8.69888
upperneck 15.1008 -4.48676 6.01458
head 8.62935 -1.98421 2.84672
rclavicle -9.93923e-015 -1.90833e-014
rhumerus -28.2961 0.549882 -83.6138
rradius 82.4451
rwrist -7.46786
rhand -26.8476 27.4893
rfingers 7.12502
rthumb -0.272938 -2.49028
lclavicle -9.93923e-015 -1.90833e-014
lhumerus -28.7006 2.94657 84.8367
lradius 78.0797
lwrist 14.2178
lhand -18.6953 24.8523
lfingers 7.12502
lthumb 7.59926 54.6958
rfemur -62.8038 2.69331 24.9231
rtibia 62.0472
rfoot -21.3048 -11.0677
rtoes 5.39944
lfemur -65.3132 0.100114 -18.9751
ltibia 63.1159
lfoot -22.9243 4.24269
ltoes -0.345938
203
root 1.03915 15.9751 -16.6999 28.5934 -1.37774 -2.32117
lowerback 24.0159 0.754191 1.16744
upperback 3.03773 1.59517 2.96103
thorax -10.1058 0.758447 2.11154
lowerneck -22.1335 -4.44144 -8.7347
upperneck 14.8161 -4.54328 6.16787
head 8.58588 -1.99107 2.89326
rclavicle -1.98785e-015 -5.56597e-015
rhumerus -27.665 0.578495 -83.6059
rradius 82.1158
rwrist -7.33127
rhand -26.8714 27.7727
rfingers 7.12502
rthumb -0.295841 -2.20682
lclavicle -1.98785e-015 -5.56597e-015
lhumerus -28.0608 2.83229 84.8169
lradius 77.6961
lwrist 14.5189
lhand -18.9584 24.5426
lfingers 7.12502
lthumb 7.34528 54.3951
rfemur -63.3569 2.60597 24.8963
rtibia 62.7989
rfoot -21.5062 -11.5206
rtoes 3.90736
lfemur -65.8335 -0.095212 -19.0281
ltibia 63.8574
lfoot -23.3437 4.33974
ltoes -0.593268
204
root 1.03465 15.9264 -16.689 28.9569 -1.43146 -2.3133
lowerback 24.2659 0.804611 1.08657
upperback 3.10507 1.64425 2.97003
thorax -10.1672 0.783756 2.15144
lowerneck -22.3677 -4.44369 -8.83908
upperneck 14.539 -4.49626 6.23807
head 8.53124 -1.96267 2.93731
rclavicle 1.98785e-014 2.66371e-014
rhumerus -27.4285 0.723927 -83.4079
rradius 82.2664
rwrist -7.47896
rhand -26.7678 27.8262
rfingers 7.12502
rthumb -0.195852 -2.15349
lclavicle 1.98785e-014 2.66371e-014
lhumerus -27.2724 2.78283 84.898
lradius 77.1046
lwrist 14.6733
lhand -19.102 24.0373
lfingers 7.12502
lthumb 7.20671 53.8946
rfemur -64.1105 2.73824 24.9043
rtibia 63.5079
rfoot -21.6895 -11.9357
rtoes 2.95857
lfemur -66.6267 -0.125819 -19.0026
ltibia 64.6064
lfoot -23.6086 4.44318
ltoes -0.544574
205
root 1.03549 15.8591 -16.6826 29.7521 -1.6901 -2.56476
lowerback 24.0396 0.943668 1.11169
upperback 3.05152 1.82459 2.96707
thorax -10.1121 0.866637 2.07661
lowerneck -22.604 -4.46352 -8.82351
upperneck 14.3006 -4.50634 6.27915
head 8.49094 -1.95734 2.94404
rclavicle -1.51076e-014 -1.78906e-014
rhumerus -27.2412 0.894451 -83.2002
rradius 82.3461
rwrist -7.79776
rhand -26.925 27.8153
rfingers 7.12502
rthumb -0.347672 -2.16413
lclavicle -1.51076e-014 -1.78906e-014
lhumerus -26.6635 2.69319 84.9962
lradius 76.611
lwrist 14.6272
lhand -19.3498 23.9183
lfingers 7.12502
lthumb 6.96746 53.7836
rfemur -65.3959 3.10781 25.0189
rtibia 64.179
rfoot -21.8078 -12.0301
rtoes 3.21851
lfemur -68.0358 0.136007 -18.8758
ltibia 65.362
lfoot -23.6996 4.69585
ltoes -0.123491
206
root 1.03702 15.8041 -16.6574 30.3443 -1.84914 -2.69882
lowerback 23.8504 1.01824 1.20316
upperback 3.06452 1.927 2.8727
thorax -9.99312 0.908587 1.88715
lowerneck -22.7467 -4.54448 -8.74289
upperneck 14.0346 -4.65766 6.46877
head 8.43956 -2.00059 2.97178
rclavicle 7.55382e-015 8.34896e-015
rhumerus -26.6637 0.875966 -83.2362
rradius 81.8814
rwrist -7.88851
rhand -27.3207 27.9716
rfingers 7.12502
rthumb -0.729792 -2.00687
lclavicle 7.55382e-015 8.34896e-015
lhumerus -26.0661 2.39571 84.9855
lradius 76.0427
lwrist 14.5472
lhand -19.7139 24.2117
lfingers 7.12502
lthumb 6.616 54.0884
rfemur -66.3279 3.33614 25.0796
rtibia 64.7537
rfoot -21.8423 -12.3187
rtoes 2.45024
lfemur -69.0159 0.263887 -18.8422
ltibia 65.9918
lfoot -23.9021 5.00686
ltoes -0.317965
